HIERARCHY
ROOT mixamorig:Hips
{
	OFFSET 0.000000 201.639420 0.000000
	CHANNELS 6 Xposition Yposition Zposition Xrotation Yrotation Zrotation
	JOINT mixamorig:Spine
	{
		OFFSET 0.006200 19.524994 -2.481800
		CHANNELS 3 Xrotation Yrotation Zrotation
		JOINT mixamorig:Spine1
		{
			OFFSET -0.000900 22.835007 -2.825400
			CHANNELS 3 Xrotation Yrotation Zrotation
			JOINT mixamorig:Spine2
			{
				OFFSET -0.020600 26.552490 -3.193300
				CHANNELS 3 Xrotation Yrotation Zrotation
				JOINT mixamorig:Neck
				{
					OFFSET -0.060000 30.701813 1.352200
					CHANNELS 3 Xrotation Yrotation Zrotation
					JOINT mixamorig:Head
					{
						OFFSET -0.087200 22.547607 3.670900
						CHANNELS 3 Xrotation Yrotation Zrotation
						JOINT mixamorig:HeadTop_End
						{
							OFFSET -0.830600 40.355194 7.893500
							CHANNELS 3 Xrotation Yrotation Zrotation
							End Site
							{
								OFFSET 0.000000 30.592346 0.000000
							}
						}
						JOINT mixamorig:RightEye
						{
							OFFSET -6.302100 18.118591 16.197100
							CHANNELS 3 Xrotation Yrotation Zrotation
							End Site
							{
								OFFSET 0.000000 30.592346 0.000000
							}
						}
						JOINT mixamorig:LeftEye
						{
							OFFSET 6.741500 18.382690 16.401899
							CHANNELS 3 Xrotation Yrotation Zrotation
							End Site
							{
								OFFSET 0.000000 30.592346 0.000000
							}
						}
					}
				}
				JOINT mixamorig:LeftShoulder
				{
					OFFSET 11.924900 18.230499 1.425400
					CHANNELS 3 Xrotation Yrotation Zrotation
					JOINT mixamorig:LeftArm
					{
						OFFSET 25.435989 -0.697632 -5.229300
						CHANNELS 3 Xrotation Yrotation Zrotation
						JOINT mixamorig:LeftForeArm
						{
							OFFSET 54.684776 0.000000 0.000000
							CHANNELS 3 Xrotation Yrotation Zrotation
							JOINT mixamorig:LeftHand
							{
								OFFSET 55.098175 0.000000 0.000000
								CHANNELS 3 Xrotation Yrotation Zrotation
								JOINT mixamorig:LeftHandMiddle1
								{
									OFFSET 23.369751 0.000000 0.000000
									CHANNELS 3 Xrotation Yrotation Zrotation
									JOINT mixamorig:LeftHandMiddle2
									{
										OFFSET 6.378677 0.000000 0.000000
										CHANNELS 3 Xrotation Yrotation Zrotation
										JOINT mixamorig:LeftHandMiddle3
										{
											OFFSET 6.148331 0.000000 0.000000
											CHANNELS 3 Xrotation Yrotation Zrotation
											JOINT mixamorig:LeftHandMiddle4
											{
												OFFSET 6.582504 0.000000 0.000000
												CHANNELS 3 Xrotation Yrotation Zrotation
												End Site
												{
													OFFSET -1.168900 6.395691 1.028606
												}
											}
										}
									}
								}
								JOINT mixamorig:LeftHandThumb1
								{
									OFFSET 7.235672 -3.848206 5.434273
									CHANNELS 3 Xrotation Yrotation Zrotation
									JOINT mixamorig:LeftHandThumb2
									{
										OFFSET 6.568451 -3.792297 3.792300
										CHANNELS 3 Xrotation Yrotation Zrotation
										JOINT mixamorig:LeftHandThumb3
										{
											OFFSET 6.063080 -3.500519 3.500518
											CHANNELS 3 Xrotation Yrotation Zrotation
											JOINT mixamorig:LeftHandThumb4
											{
												OFFSET 4.793182 -2.767334 2.767349
												CHANNELS 3 Xrotation Yrotation Zrotation
												End Site
												{
													OFFSET 0.101639 6.054260 1.275483
												}
											}
										}
									}
								}
								JOINT mixamorig:LeftHandIndex1
								{
									OFFSET 23.101074 -0.309540 4.992809
									CHANNELS 3 Xrotation Yrotation Zrotation
									JOINT mixamorig:LeftHandIndex2
									{
										OFFSET 6.226883 0.000000 0.000000
										CHANNELS 3 Xrotation Yrotation Zrotation
										JOINT mixamorig:LeftHandIndex3
										{
											OFFSET 6.094330 0.000000 0.000000
											CHANNELS 3 Xrotation Yrotation Zrotation
											JOINT mixamorig:LeftHandIndex4
											{
												OFFSET 5.482605 0.000000 0.000000
												CHANNELS 3 Xrotation Yrotation Zrotation
												End Site
												{
													OFFSET -1.427902 5.233032 0.797164
												}
											}
										}
									}
								}
								JOINT mixamorig:LeftHandRing1
								{
									OFFSET 22.299240 0.021149 -3.964172
									CHANNELS 3 Xrotation Yrotation Zrotation
									JOINT mixamorig:LeftHandRing2
									{
										OFFSET 6.321869 0.000000 0.000000
										CHANNELS 3 Xrotation Yrotation Zrotation
										JOINT mixamorig:LeftHandRing3
										{
											OFFSET 5.899796 0.000000 0.000000
											CHANNELS 3 Xrotation Yrotation Zrotation
											JOINT mixamorig:LeftHandRing4
											{
												OFFSET 6.517899 0.000000 0.000000
												CHANNELS 3 Xrotation Yrotation Zrotation
												End Site
												{
													OFFSET -1.637299 6.232208 0.980890
												}
											}
										}
									}
								}
								JOINT mixamorig:LeftHandPinky1
								{
									OFFSET 20.463791 -0.302338 -8.562233
									CHANNELS 3 Xrotation Yrotation Zrotation
									JOINT mixamorig:LeftHandPinky2
									{
										OFFSET 6.908646 0.000000 0.000000
										CHANNELS 3 Xrotation Yrotation Zrotation
										JOINT mixamorig:LeftHandPinky3
										{
											OFFSET 4.622849 0.000000 0.000000
											CHANNELS 3 Xrotation Yrotation Zrotation
											JOINT mixamorig:LeftHandPinky4
											{
												OFFSET 5.216080 0.000000 0.000000
												CHANNELS 3 Xrotation Yrotation Zrotation
												End Site
												{
													OFFSET -0.606308 5.116241 0.814926
												}
											}
										}
									}
								}
							}
						}
					}
				}
				JOINT mixamorig:RightShoulder
				{
					OFFSET -12.001300 18.284088 1.348900
					CHANNELS 3 Xrotation Yrotation Zrotation
					JOINT mixamorig:RightArm
					{
						OFFSET -25.308500 -0.751312 -5.164599
						CHANNELS 3 Xrotation Yrotation Zrotation
						JOINT mixamorig:RightForeArm
						{
							OFFSET -54.684429 0.000000 0.000000
							CHANNELS 3 Xrotation Yrotation Zrotation
							JOINT mixamorig:RightHand
							{
								OFFSET -55.150291 0.000000 0.000000
								CHANNELS 3 Xrotation Yrotation Zrotation
								JOINT mixamorig:RightHandMiddle1
								{
									OFFSET -23.317566 0.000000 0.000000
									CHANNELS 3 Xrotation Yrotation Zrotation
									JOINT mixamorig:RightHandMiddle2
									{
										OFFSET -6.378403 0.000000 0.000000
										CHANNELS 3 Xrotation Yrotation Zrotation
										JOINT mixamorig:RightHandMiddle3
										{
											OFFSET -6.148193 0.000000 0.000000
											CHANNELS 3 Xrotation Yrotation Zrotation
											JOINT mixamorig:RightHandMiddle4
											{
												OFFSET -6.583389 0.000000 0.000000
												CHANNELS 3 Xrotation Yrotation Zrotation
												End Site
												{
													OFFSET 1.171692 6.395905 1.029786
												}
											}
										}
									}
								}
								JOINT mixamorig:RightHandThumb1
								{
									OFFSET -7.190521 -3.860474 5.435846
									CHANNELS 3 Xrotation Yrotation Zrotation
									JOINT mixamorig:RightHandThumb2
									{
										OFFSET -6.567429 -3.791718 3.791708
										CHANNELS 3 Xrotation Yrotation Zrotation
										JOINT mixamorig:RightHandThumb3
										{
											OFFSET -6.062469 -3.500153 3.500166
											CHANNELS 3 Xrotation Yrotation Zrotation
											JOINT mixamorig:RightHandThumb4
											{
												OFFSET -4.792618 -2.767029 2.767022
												CHANNELS 3 Xrotation Yrotation Zrotation
												End Site
												{
													OFFSET -0.100327 6.053253 1.276754
												}
											}
										}
									}
								}
								JOINT mixamorig:RightHandIndex1
								{
									OFFSET -23.048981 -0.310791 4.992554
									CHANNELS 3 Xrotation Yrotation Zrotation
									JOINT mixamorig:RightHandIndex2
									{
										OFFSET -6.227539 0.000000 0.000000
										CHANNELS 3 Xrotation Yrotation Zrotation
										JOINT mixamorig:RightHandIndex3
										{
											OFFSET -6.095047 0.000000 0.000000
											CHANNELS 3 Xrotation Yrotation Zrotation
											JOINT mixamorig:RightHandIndex4
											{
												OFFSET -5.484772 0.000000 0.000000
												CHANNELS 3 Xrotation Yrotation Zrotation
												End Site
												{
													OFFSET 1.420593 5.237305 0.797056
												}
											}
										}
									}
								}
								JOINT mixamorig:RightHandRing1
								{
									OFFSET -22.246323 0.020569 -3.963762
									CHANNELS 3 Xrotation Yrotation Zrotation
									JOINT mixamorig:RightHandRing2
									{
										OFFSET -6.322128 0.000000 0.000000
										CHANNELS 3 Xrotation Yrotation Zrotation
										JOINT mixamorig:RightHandRing3
										{
											OFFSET -5.900024 0.000000 0.000000
											CHANNELS 3 Xrotation Yrotation Zrotation
											JOINT mixamorig:RightHandRing4
											{
												OFFSET -6.518356 0.000000 0.000000
												CHANNELS 3 Xrotation Yrotation Zrotation
												End Site
												{
													OFFSET 1.636398 6.232697 0.982186
												}
											}
										}
									}
								}
								JOINT mixamorig:RightHandPinky1
								{
									OFFSET -20.411011 -0.303314 -8.561701
									CHANNELS 3 Xrotation Yrotation Zrotation
									JOINT mixamorig:RightHandPinky2
									{
										OFFSET -6.907349 0.000000 0.000000
										CHANNELS 3 Xrotation Yrotation Zrotation
										JOINT mixamorig:RightHandPinky3
										{
											OFFSET -4.623840 0.000000 0.000000
											CHANNELS 3 Xrotation Yrotation Zrotation
											JOINT mixamorig:RightHandPinky4
											{
												OFFSET -5.218353 0.000000 0.000000
												CHANNELS 3 Xrotation Yrotation Zrotation
												End Site
												{
													OFFSET 0.602097 5.118835 0.816273
												}
											}
										}
									}
								}
							}
						}
					}
				}
			}
		}
	}
	JOINT mixamorig:LeftUpLeg
	{
		OFFSET 18.168400 -13.561905 -0.039000
		CHANNELS 3 Xrotation Yrotation Zrotation
		JOINT mixamorig:LeftLeg
		{
			OFFSET 0.577358 -80.825211 -3.695000
			CHANNELS 3 Xrotation Yrotation Zrotation
			JOINT mixamorig:LeftFoot
			{
				OFFSET -0.577356 -83.370262 -6.520700
				CHANNELS 3 Xrotation Yrotation Zrotation
				JOINT mixamorig:LeftToeBase
				{
					OFFSET 0.750401 -20.798306 25.135401
					CHANNELS 3 Xrotation Yrotation Zrotation
					JOINT mixamorig:LeftToe_End
					{
						OFFSET -0.000500 0.001200 19.917799
						CHANNELS 3 Xrotation Yrotation Zrotation
						End Site
						{
							OFFSET 0.000000 19.917805 0.000000
						}
					}
				}
			}
		}
	}
	JOINT mixamorig:RightUpLeg
	{
		OFFSET -18.162500 -13.585098 -0.041000
		CHANNELS 3 Xrotation Yrotation Zrotation
		JOINT mixamorig:RightLeg
		{
			OFFSET -0.595024 -80.945297 -3.631900
			CHANNELS 3 Xrotation Yrotation Zrotation
			JOINT mixamorig:RightFoot
			{
				OFFSET 0.595024 -83.218193 -6.561200
				CHANNELS 3 Xrotation Yrotation Zrotation
				JOINT mixamorig:RightToeBase
				{
					OFFSET -0.753601 -20.807106 25.115000
					CHANNELS 3 Xrotation Yrotation Zrotation
					JOINT mixamorig:RightToe_End
					{
						OFFSET 0.000299 0.001700 19.918200
						CHANNELS 3 Xrotation Yrotation Zrotation
						End Site
						{
							OFFSET 0.000000 19.918203 0.000000
						}
					}
				}
			}
		}
	}
}
MOTION
Frames: 5
Frame Time: 0.033333
-56.227562 189.827209 6.477643 -354.644431 -36.029046 369.664209 22.811428 -11.898356 14.583475 1.926925 -1.589601 -5.128963 1.770643 -1.832360 -5.102892 -3.206529 -4.959342 8.147883 3.998018 -13.711321 13.567216 -0.000002 0.000000 -0.000000 -0.000002 0.000000 -0.000000 -0.000002 0.000000 -0.000000 2.010133 -9.363021 7.380544 -49.523711 -71.835149 -92.767704 0.000000 -1.933225 0.000017 -8.771781 -40.606950 36.452050 0.332311 2.117162 -17.838321 0.757228 3.144154 -27.076475 0.651922 2.929277 -25.088092 0.000002 0.000002 -0.000000 -1.627246 8.968112 6.932360 4.379919 13.244949 1.150268 -0.579466 1.574991 2.538727 0.000001 0.000003 0.000000 0.038206 0.725951 -6.026878 0.552834 2.707817 -23.073347 0.433998 2.410162 -20.412428 -0.000002 0.000000 0.000000 1.186610 3.869376 -34.087357 1.341909 4.088905 -36.324626 0.993765 3.568462 -31.114934 0.000002 -0.000001 -0.000001 6.710714 7.995540 -57.965623 1.869798 0.634048 -43.352898 1.190331 3.874845 -34.142429 -0.000001 -0.000003 0.000001 3.956956 13.790797 10.811354 -13.378018 53.363442 48.116108 0.000001 0.041211 0.000014 -7.668666 -8.937454 -29.760705 0.070237 -0.987827 8.133829 0.271679 -1.928317 16.037633 0.409281 -2.354602 19.718876 0.000002 0.000002 0.000000 -2.030253 -12.017199 -7.916338 5.396302 -17.106665 -0.803873 -1.273773 0.137302 -2.094871 0.000001 -0.000000 0.000003 0.007062 -0.313978 2.577291 0.202478 -1.668997 13.833104 0.427206 -2.403965 20.150487 -0.000000 -0.000000 0.000000 0.260019 -1.887319 15.687485 0.487828 -2.562997 21.549525 0.471322 -2.520837 21.177422 0.000000 -0.000000 0.000001 0.747296 -3.140838 26.760859 0.757073 -3.160132 26.938789 0.486057 -2.558506 21.509874 -0.000002 -0.000000 -0.000001 -14.967955 11.640311 17.410873 40.214047 -8.586185 -9.810935 7.205442 12.182124 -6.508595 -28.233267 1.192206 -9.843715 -0.000000 -0.000000 0.000000 -38.167961 -7.025893 -9.242900 46.815752 6.843307 -6.336655 -13.221425 -22.515273 -3.144639 -2.334290 -0.000042 -0.000005 -0.000000 -0.000001 -0.000000 
-52.034874 189.911438 7.625255 -356.258350 -28.729876 372.942645 23.282926 -16.034043 16.001730 2.930635 -2.194535 -4.729019 2.730039 -2.447196 -4.722041 -3.890042 -5.168249 8.277254 2.929273 -14.370920 13.264288 -0.000000 0.000000 -0.000000 -0.000000 0.000000 -0.000000 -0.000000 0.000000 -0.000000 2.152810 -9.471352 10.345028 -76.289122 -74.781262 -111.684200 0.000002 -5.728277 -0.000018 -8.761649 -50.048218 23.449172 0.123179 1.299205 -10.831964 0.533929 2.663118 -22.670395 0.614511 2.848136 -24.346114 -0.000000 -0.000001 0.000000 -1.627246 8.968118 6.932361 4.379920 13.244954 1.150270 -0.579465 1.574992 2.538726 0.000001 -0.000002 0.000001 0.033454 -0.679369 5.638859 0.307459 2.038397 -17.153127 0.415719 2.360518 -19.973328 -0.000001 -0.000001 -0.000002 0.935688 3.470608 -30.168700 1.224995 3.925355 -34.651974 1.013998 3.601669 -31.438193 -0.000000 -0.000003 -0.000001 6.462776 7.986440 -56.182206 1.950722 0.718348 -44.322330 1.281613 4.005851 -35.470777 0.000004 0.000001 -0.000002 3.848325 13.291683 10.175892 -10.166424 50.144428 46.864257 0.000002 0.304034 0.000017 -8.091738 -9.489096 -21.820501 0.037517 -0.722780 5.941850 0.224035 -1.754220 14.554950 0.376277 -2.260469 18.899110 0.000001 0.000001 -0.000001 -2.030252 -12.017200 -7.916336 5.396307 -17.106663 -0.803876 -1.273772 0.137308 -2.094874 0.000000 0.000000 -0.000001 0.003882 -0.232782 1.910507 0.148625 -1.432784 11.843558 0.354196 -2.194975 18.331116 0.000002 -0.000000 -0.000001 0.138465 -1.383496 11.430303 0.436071 -2.427979 20.360857 0.489370 -2.566877 21.583919 -0.000001 0.000000 -0.000001 0.399461 -2.327032 19.478373 0.767742 -3.181009 27.131689 0.575777 -2.775158 23.438020 -0.000001 0.000001 -0.000001 -10.300210 16.934134 13.205896 33.069484 -7.409022 -10.117083 4.942432 8.481075 -11.765252 -25.632501 0.213899 -2.906670 -0.000000 -0.000000 -0.000000 -36.694624 1.613641 -12.694407 49.416634 6.363904 -8.783872 -11.179987 -27.973152 1.708982 -4.174136 0.000002 -0.000003 -0.000000 -0.000000 0.000000 
-47.808613 190.495743 8.804590 -357.829349 -23.276139 376.444210 23.792976 -19.446121 16.784544 3.147378 -2.685646 -4.339833 2.917904 -2.929237 -4.340122 -4.075772 -5.269205 8.295799 1.989817 -14.828959 12.110573 0.000003 0.000000 -0.000001 0.000003 0.000000 -0.000001 0.000003 0.000000 -0.000001 2.424863 -10.203381 12.727506 -90.687044 -74.757397 -119.192333 0.000006 -9.772604 0.000002 -11.553230 -52.780379 7.247844 0.041556 0.757014 -6.285853 0.331263 2.113926 -17.810236 0.539091 2.675412 -22.781025 0.000001 -0.000002 0.000000 -1.627246 8.968115 6.932362 4.379922 13.244955 1.150273 -0.579466 1.574992 2.538725 0.000002 0.000003 -0.000002 0.123514 -1.300917 10.846410 0.101765 1.181831 -9.842853 0.351631 2.176294 -18.354530 0.000002 -0.000000 0.000000 0.658397 2.943096 -25.215103 1.058175 3.672832 -32.134483 0.995460 3.571267 -31.142097 0.000001 0.000001 0.000003 5.554039 7.887152 -49.608019 1.987676 0.755889 -44.759316 1.354805 4.106369 -36.505380 -0.000001 -0.000000 -0.000001 3.600731 12.131802 9.006207 -7.863537 46.009968 45.649836 -0.000000 1.685460 0.000009 -9.506640 -10.085632 -10.829444 0.024129 -0.580042 4.765274 0.188319 -1.610465 13.338489 0.342985 -2.160863 18.036057 -0.000001 0.000000 -0.000003 -2.030253 -12.017200 -7.916331 5.396304 -17.106666 -0.803877 -1.273774 0.137301 -2.094870 -0.000001 0.000001 -0.000000 0.009015 -0.354837 2.912950 0.127256 -1.326817 10.956014 0.290524 -1.992669 16.588518 -0.000000 0.000000 -0.000000 0.063994 -0.943175 7.763751 0.354263 -2.195179 18.332858 0.487640 -2.562528 21.545441 0.000000 -0.000001 0.000003 0.165727 -1.512040 12.509277 0.661111 -2.964008 25.142456 0.644617 -2.928650 24.821572 -0.000001 0.000000 -0.000001 -3.242838 17.166977 6.082416 24.393029 -3.827390 -10.682322 1.593669 2.707300 -11.029786 -22.508762 -0.000001 -0.000002 -0.000000 -0.000000 0.000000 -31.783558 12.873397 -15.933076 50.762874 5.740789 -10.380162 -7.100712 -29.074145 6.978482 -6.832889 0.000018 -0.000000 -0.000000 0.000001 0.000000 
-43.838169 190.523666 9.844143 -359.054821 -18.905935 379.634482 23.408202 -22.316977 17.248261 2.957188 -3.086004 -4.107806 2.705148 -3.309384 -4.106956 -3.694637 -5.317299 8.386017 1.207260 -15.255914 11.091418 0.000001 0.000001 0.000002 0.000001 0.000001 0.000002 0.000001 0.000001 0.000002 2.803824 -11.498111 13.950563 -93.451898 -74.725002 -116.500652 -0.000001 -13.200963 0.000007 -10.429828 -49.664419 -3.992534 0.017049 0.485159 -4.023594 0.201838 1.658172 -13.879457 0.439236 2.424232 -20.536917 0.000001 0.000005 0.000001 -1.627252 8.968116 6.932355 4.379919 13.244954 1.150271 -0.579469 1.574989 2.538728 -0.000002 -0.000002 0.000003 0.097197 -1.155175 9.618621 0.016869 0.482672 -4.002894 0.248143 1.835389 -15.398590 0.000000 -0.000001 0.000000 0.371314 2.234712 -18.866144 0.865255 3.346736 -28.984205 0.935509 3.470292 -30.165698 -0.000001 0.000001 0.000004 3.948387 7.443421 -37.613736 1.914096 0.680558 -43.885874 1.400429 4.167142 -37.137716 -0.000002 0.000000 0.000002 3.426652 11.317740 7.620264 -8.665160 40.579865 45.610057 0.000002 1.170641 0.000018 -12.347578 -9.492741 2.166957 0.033102 -0.679062 5.581235 0.162720 -1.498429 12.394792 0.320973 -2.092104 17.442859 0.000002 -0.000000 0.000001 -2.030251 -12.017200 -7.916334 5.396304 -17.106668 -0.803877 -1.273773 0.137296 -2.094871 0.000000 -0.000004 -0.000000 0.039974 -0.746046 6.133844 0.119613 -1.286748 10.621146 0.256875 -1.876083 15.591671 -0.000000 0.000001 0.000000 0.042540 -0.769590 6.328227 0.268224 -1.916263 15.934625 0.471077 -2.520219 21.171884 0.000001 0.000000 0.000001 0.077130 -1.034907 8.524430 0.485754 -2.557743 21.503094 0.674559 -2.992446 25.401238 0.000003 0.000000 -0.000000 2.985693 11.892028 -1.611599 15.279671 -2.473430 -10.002539 -1.874619 1.288689 -8.502062 -17.423763 -0.000004 0.000002 -0.000000 0.000000 0.000000 -24.853289 23.539581 -20.268648 51.638518 4.460866 -10.340186 -4.827661 -26.317731 8.725695 -8.943737 -0.000682 0.247151 -0.000000 -0.000000 -0.000003 
-40.237240 189.606735 10.270769 -359.431957 -15.147958 381.682664 22.360576 -24.419040 18.169078 2.584709 -3.387831 -3.986710 2.311861 -3.585994 -3.979854 -3.248912 -5.315709 8.605467 0.318770 -15.493847 11.119965 -0.000001 0.000000 -0.000000 -0.000001 0.000000 -0.000000 -0.000001 0.000000 -0.000000 2.785848 -11.380366 14.145259 -97.623129 -75.371581 -116.439958 -0.000010 -15.220820 -0.000022 -5.462973 -43.352935 -12.186999 0.013933 0.438746 -3.638164 0.139516 1.381860 -11.530513 0.343194 2.150672 -18.130694 -0.000000 -0.000001 0.000000 -1.627247 8.968116 6.932361 4.379914 13.244952 1.150271 -0.579465 1.574993 2.538728 0.000004 -0.000002 0.000003 0.015285 -0.459422 3.809936 0.002042 0.168008 -1.392320 0.144709 1.407025 -11.743560 0.000001 -0.000000 -0.000002 0.153437 1.448342 -12.093643 0.659505 2.945473 -25.236856 0.851897 3.322496 -28.754301 -0.000000 -0.000004 0.000000 2.149049 6.454372 -22.823176 1.652215 0.392467 -40.656831 1.427424 4.202462 -37.507827 0.000004 0.000001 0.000001 3.626812 12.258947 6.235339 -9.437358 34.137904 44.175369 0.000002 0.019917 0.000020 -15.058310 -7.516313 15.547814 0.068917 -0.978552 8.056934 0.159441 -1.483423 12.268686 0.307129 -2.047541 17.059453 0.000000 -0.000001 0.000004 -2.030250 -12.017202 -7.916333 5.396305 -17.106668 -0.803877 -1.273772 0.137301 -2.094870 -0.000001 0.000001 0.000001 0.135953 -1.371012 11.325751 0.131081 -1.346462 11.120361 0.242522 -1.823882 15.146960 -0.000002 -0.000001 0.000000 0.046638 -0.805675 6.626245 0.211938 -1.706941 14.154222 0.441121 -2.441537 20.479851 -0.000001 0.000000 -0.000002 0.048358 -0.820282 6.747002 0.342153 -2.158325 18.014108 0.651830 -2.944179 24.962403 0.000001 0.000000 -0.000001 4.327633 6.283215 -5.777277 11.180306 -3.098744 -9.221023 -5.333666 2.692353 -8.160824 -12.040073 0.000001 -0.000006 0.000000 0.000000 0.000000 -19.424681 29.661883 -24.226502 52.381506 2.942359 -10.325454 -4.708034 -22.901506 7.677791 -11.372186 -0.035560 1.744839 0.000000 -0.000001 -0.000002 
